<svg width="20" height="20" viewBox="0 0 20 20" fill="none" xmlns="http://www.w3.org/2000/svg">
<g id="Icon">
<path id="Vector" d="M6.2918 18.1249C13.8371 18.1249 17.9652 11.8721 17.9652 6.45143C17.9652 6.27565 17.9613 6.09596 17.9535 5.92018C18.7566 5.33943 19.4496 4.62009 20 3.79596C19.2521 4.12871 18.458 4.34603 17.6449 4.44049C18.5011 3.9273 19.1421 3.1211 19.4492 2.17135C18.6438 2.64868 17.763 2.98539 16.8445 3.16705C16.2257 2.50951 15.4075 2.07414 14.5164 1.92825C13.6253 1.78237 12.711 1.93409 11.9148 2.35996C11.1186 2.78583 10.4848 3.46213 10.1115 4.2843C9.73825 5.10648 9.64619 6.02872 9.84961 6.90846C8.21874 6.82662 6.62328 6.40296 5.16665 5.66496C3.71002 4.92696 2.42474 3.89108 1.39414 2.62448C0.870333 3.52758 0.710047 4.59625 0.945859 5.61329C1.18167 6.63033 1.79589 7.51942 2.66367 8.09987C2.01219 8.07918 1.37498 7.90378 0.804688 7.58815V7.63893C0.804104 8.58667 1.13175 9.50537 1.73192 10.2389C2.3321 10.9723 3.16777 11.4753 4.09687 11.6624C3.49338 11.8275 2.85999 11.8515 2.2457 11.7327C2.50788 12.5477 3.01798 13.2606 3.70481 13.7718C4.39164 14.283 5.22093 14.567 6.07695 14.5842C4.62369 15.7258 2.82848 16.345 0.980469 16.3421C0.652739 16.3416 0.325333 16.3215 0 16.2819C1.87738 17.4863 4.06128 18.126 6.2918 18.1249Z" fill="#262626"/>
</g>
</svg>
